<svg width="22" height="22" viewBox="0 0 22 22" fill="none" xmlns="http://www.w3.org/2000/svg">
<g id="icon-instagram" clip-path="url(#clip0_173_520)">
<path id="Vector" d="M16.0418 5.95837H16.0518M6.41683 1.83337H15.5835C18.1148 1.83337 20.1668 3.8854 20.1668 6.41671V15.5834C20.1668 18.1147 18.1148 20.1667 15.5835 20.1667H6.41683C3.88552 20.1667 1.8335 18.1147 1.8335 15.5834V6.41671C1.8335 3.8854 3.88552 1.83337 6.41683 1.83337ZM14.6668 10.4225C14.78 11.1854 14.6496 11.9646 14.2944 12.6491C13.9392 13.3337 13.3772 13.8888 12.6883 14.2356C11.9994 14.5823 11.2187 14.703 10.4573 14.5805C9.69586 14.458 8.99244 14.0985 8.4471 13.5531C7.90175 13.0078 7.54225 12.3043 7.41972 11.5429C7.2972 10.7815 7.41789 10.0008 7.76463 9.31188C8.11137 8.62299 8.6665 8.06097 9.35107 7.70576C10.0356 7.35055 10.8148 7.22025 11.5777 7.33337C12.3558 7.44877 13.0763 7.81138 13.6325 8.36766C14.1888 8.92393 14.5514 9.64436 14.6668 10.4225Z" stroke="#2D2D2D" stroke-width="2" stroke-linecap="round" stroke-linejoin="round"/>
</g>
<defs>
<clipPath id="clip0_173_520">
<rect width="22" height="22" fill="white"/>
</clipPath>
</defs>
</svg>
